# xmcd
#
# Track frame offsets: 
#        150
#        12285
#        27404
#        37425
#        54301
#
# Disc length: 882 seconds
#
# Revision: 0
# Processed by: cddbd v1.5.2PL0 Copyright (c) Steve Scherf et al.
# Submitted via: ExactAudioCopy v0.99pb5
#
DISCID=3d037005
DTITLE=Eli "Paperboy" Reed and The True Loves - Roll With You - Bonus Di
DTITLE=sc
DYEAR=2008
DGENRE=Soul
TTITLE0=Ace Of Spades
TTITLE1=Bad Girl
TTITLE2=I'm Gonna Break Every Heart I Can
TTITLE3=Stake Your Claim (Live)
TTITLE4=So Tired Of Wandering (Live)
EXTD=
EXTT0=
EXTT1=
EXTT2=
EXTT3=
EXTT4=
PLAYORDER=
